<svg version="1.2" xmlns="http://www.w3.org/2000/svg" viewBox="0 0 2027 400" width="2027" height="400"><style>.a{fill:#006dff}.b{fill:#2482ff}.c{fill:#00aeef}</style><path class="a" d="m88 239.5c-0.1 19.2-0.4 38.3-0.1 57.4 0.1 9.4 8.4 16.5 18.5 16.7 16.3 0.2 32.5 0.2 48.8 0.1 27.4-0.1 54.9-0.3 82.3-0.4 35.6-0.1 67.3 25.5 74.5 60.4 1.1 5 1.1 10.3 1.7 16.3-2.9 0-5 0-7.1 0-74.4 0-148.8-0.1-223.2 0-28.5 0.1-58.3-22.3-67-48.5-3.1-9.5-4.7-19.9-5.1-29.9-0.8-22.4-0.4-44.8-0.2-67.2 0-2.8 1-6.3 2.9-8.2 24.2-24.4 48.6-48.6 73.4-72.2 0.4 25.5 0.5 50.5 0.6 75.5z"/><path class="b" d="m88.5 239.5c-0.6-25-0.7-50-0.8-75.5 1.8-0.6 3.6-0.8 5.4-0.8q107.2 0 214.4 0c1.7 0 3.3 0 5.1 0 1.8 7.8 0.1 15.2-2 22.3-9.3 31.5-39.3 53.9-72.2 54-49.8 0-99.6 0-149.9 0z"/><path class="c" d="m114.8 89.5c-32.8 0.1-65.2 0.1-97.5 0.2-6.6 0-6.8-0.7-5.9-7.3 2.4-18.8 9.1-35.5 23.2-48.7 14-13.1 30.3-20.9 49.7-21q110.7-0.5 221.5-0.8c2.4 0 4.8 0.6 7.7 0.9-0.5 30.4-14.2 52.4-39.9 67.1-12.5 7.2-26.3 9.7-40.7 9.7-39.2-0.1-78.4-0.1-118.1-0.1z"/><path class="c" d="m369.8 199.8c0 110.6 80.9 188.4 187.3 188.4 82 0 148.6-43.4 173.5-119.6h-85.2c-17.4 36-49.2 53.4-88.8 53.4-64.6 0-110.6-47.6-110.6-122.2 0-75.1 46-122.2 110.6-122.2 39.6 0 71.4 17.5 88.8 52.9h85.2c-24.9-75.6-91.5-119.6-173.5-119.6-106.4 0-187.3 78.3-187.3 188.9zm784.6-0.5c0-110.6-83.6-188.9-188.9-188.9-104.2 0-189.4 78.3-189.4 188.9 0 111.1 85.2 189.4 189.4 189.4 104.8 0 188.9-78.3 188.9-189.4zm-302.1 0c0-75.1 46-122.2 113.2-122.2 66.7 0 112.7 47.1 112.7 122.2 0 75.1-46 123.3-112.7 123.3-67.2 0-113.2-48.2-113.2-123.3zm357.1 185.7h74.1v-240.2l99.4 240.2h56.1l98.9-240.2v240.2h74.1v-369.3h-83.6l-117.4 274.6-117.5-274.6h-84.1zm726.4 0h78.3l-132.8-369.8h-86.2l-132.8 369.8h77.7l24.4-70.4h147.1zm-44.5-129.6h-106.8l53.4-154.5z"/></svg>
