<svg version="1.2" xmlns="http://www.w3.org/2000/svg" viewBox="0 0 400 400" width="400" height="400"><style>.a{fill:#006dff}.b{fill:#2482ff}.c{fill:#00aeef}</style><path class="a" d="m127 239.5c-0.1 19.2-0.4 38.3-0.1 57.4 0.1 9.4 8.4 16.5 18.5 16.7 16.3 0.2 32.5 0.2 48.8 0.1 27.4-0.1 54.9-0.3 82.3-0.4 35.6-0.1 67.3 25.5 74.5 60.4 1.1 5 1.1 10.3 1.7 16.3-2.9 0-5 0-7.1 0-74.4 0-148.8-0.1-223.2 0-28.5 0.1-58.3-22.3-67-48.5-3.1-9.5-4.7-19.9-5.1-29.9-0.8-22.4-0.4-44.8-0.2-67.2 0-2.8 1-6.3 2.9-8.2 24.2-24.4 48.6-48.6 73.4-72.2 0.4 25.5 0.5 50.5 0.6 75.5z"/><path class="b" d="m127.5 239.5c-0.6-25-0.7-50-0.8-75.5 1.8-0.6 3.6-0.8 5.4-0.8q107.2 0 214.4 0c1.7 0 3.3 0 5.1 0 1.8 7.8 0.1 15.2-2 22.3-9.3 31.5-39.3 53.9-72.2 54-49.8 0-99.6 0-149.9 0z"/><path class="c" d="m153.8 89.5c-32.8 0.1-65.2 0.1-97.5 0.2-6.6 0-6.8-0.7-5.9-7.3 2.4-18.8 9.1-35.5 23.2-48.7 14-13.1 30.3-20.9 49.7-21q110.7-0.5 221.5-0.8c2.4 0 4.8 0.6 7.7 0.9-0.5 30.4-14.2 52.4-39.9 67.1-12.5 7.2-26.3 9.7-40.7 9.7-39.2-0.1-78.4-0.1-118.1-0.1z"/></svg>